<svg xmlns="http://www.w3.org/2000/svg" viewBox="0 0 106.8 106.8"><g transform="translate(-74 -148)"><rect width="26.3" height="12.8" x="154.2" y="195.3" fill="#d3d3d3" rx="6.9" ry="6.4"/><rect width="26.3" height="12.8" x="36.3" y="231.8" fill="#ebebeb" rx="6.9" ry="6.4" transform="rotate(-30)"/><rect width="26.3" height="12.8" x="-84.1" y="204.4" fill="#f0f0f0" rx="6.9" ry="6.4" transform="rotate(-60)"/><rect width="26.3" height="12.8" x="-174.6" y="120.6" rx="6.9" ry="6.4" transform="rotate(-90)"/><rect width="26.3" height="12.8" x="-211.1" y="2.7" fill="#171717" rx="6.9" ry="6.4" transform="rotate(240)"/><rect width="26.3" height="12.8" x="-183.7" y="-117.6" fill="#2f2f2f" rx="6.9" ry="6.4" transform="rotate(210)"/><rect width="26.3" height="12.8" x="-99.9" y="-208.2" fill="#464646" rx="6.9" ry="6.4" transform="scale(-1)"/><rect width="26.3" height="12.8" x="18" y="-244.6" fill="#5e5e5e" rx="6.9" ry="6.4" transform="rotate(150)"/><rect width="26.3" height="12.8" x="138.4" y="-217.3" fill="#757575" rx="6.9" ry="6.4" transform="rotate(120)"/><rect width="26.3" height="12.8" x="228.9" y="-133.4" fill="#8d8d8d" rx="6.9" ry="6.4" transform="rotate(90)"/><rect width="26.3" height="12.8" x="265.4" y="-15.5" fill="#a4a4a4" rx="6.9" ry="6.4" transform="rotate(60)"/><rect width="26.3" height="12.8" x="238" y="104.8" fill="#bcbcbc" rx="6.9" ry="6.4" transform="rotate(30)"/></g></svg>
